<?xml version="1.0" standalone="no"?>
<!DOCTYPE svg PUBLIC "-//W3C//DTD SVG 20010904//EN"
 "http://www.w3.org/TR/2001/REC-SVG-20010904/DTD/svg10.dtd">
<svg version="1.0" xmlns="http://www.w3.org/2000/svg"
 width="512.000000pt" height="512.000000pt" viewBox="0 0 512.000000 512.000000"
 preserveAspectRatio="xMidYMid meet">

<g transform="translate(0.000000,512.000000) scale(0.100000,-0.100000)"
fill="#ffff" stroke="none">
<path d="M2357 5106 c-253 -45 -487 -170 -670 -359 -77 -79 -180 -222 -206
-284 -18 -45 -7 -80 32 -99 51 -24 75 -8 134 87 58 95 138 191 213 255 56 48
105 84 114 84 3 0 6 -168 6 -374 0 -256 4 -384 12 -407 32 -94 108 -160 209
-181 110 -23 224 36 278 143 27 54 31 73 31 142 0 95 18 139 65 161 41 20 68
20 104 2 56 -30 56 -26 61 -340 6 -325 8 -337 78 -409 109 -113 278 -114 382
-1 78 85 74 57 80 638 l5 518 51 -59 c168 -193 259 -399 285 -644 13 -126 2
-266 -32 -395 -11 -42 -17 -84 -14 -95 9 -27 56 -49 105 -49 58 0 105 -25 124
-65 20 -42 20 -59 0 -101 -32 -68 48 -64 -1244 -64 -1036 0 -1176 2 -1205 15
-40 20 -60 55 -60 107 0 33 7 46 38 74 30 28 44 34 82 34 61 0 113 23 120 52
3 13 -3 57 -14 98 -41 148 -47 297 -20 472 11 67 3 101 -25 120 -18 12 -71 9
-90 -5 -38 -28 -61 -246 -44 -416 17 -176 18 -173 -17 -184 -52 -17 -114 -66
-139 -110 -57 -97 -55 -197 5 -292 l30 -47 -20 -22 c-35 -37 -54 -97 -54 -166
-1 -103 51 -186 147 -238 21 -11 65 -18 140 -22 l109 -5 337 -1200 c185 -660
344 -1223 354 -1252 19 -57 80 -133 136 -168 93 -59 223 -69 323 -26 56 24
130 90 162 145 26 45 235 780 235 826 0 50 -63 85 -109 60 -26 -13 -29 -24
-141 -424 -56 -197 -107 -370 -114 -385 -31 -58 -104 -101 -173 -101 -78 1
-158 59 -182 132 -13 41 -671 2388 -671 2394 0 2 195 4 433 4 487 0 477 -2
477 69 0 26 -7 44 -21 57 -20 18 -47 19 -621 22 -585 2 -601 3 -629 23 -16 11
-33 37 -40 59 -10 32 -9 44 7 77 39 79 -57 73 1266 71 l1177 -3 30 -29 c38
-36 48 -81 28 -129 -27 -63 -17 -62 -515 -67 l-454 -5 -24 -28 c-29 -34 -30
-56 -3 -91 l20 -26 290 0 c159 0 289 -3 289 -7 0 -3 -86 -312 -191 -685 -104
-373 -187 -687 -184 -697 7 -23 34 -47 62 -55 16 -5 30 1 52 21 28 26 43 76
206 658 97 347 185 659 195 695 l20 65 83 2 c93 3 178 28 225 68 38 32 81 113
88 168 8 55 -15 136 -52 184 l-25 33 35 50 c60 87 68 199 21 289 -24 47 -92
98 -146 111 -27 7 -49 14 -49 15 0 2 7 34 16 72 24 100 21 301 -5 430 -108
525 -468 899 -961 998 -109 22 -347 28 -443 11z m458 -170 c60 -16 142 -47
205 -78 l105 -53 3 -546 c2 -419 -1 -556 -10 -585 -25 -76 -124 -108 -180 -57
-44 39 -48 67 -48 350 0 260 -1 269 -24 319 -46 99 -156 162 -263 151 -75 -8
-150 -52 -190 -111 -42 -61 -53 -103 -53 -199 0 -74 -2 -79 -33 -114 -29 -31
-40 -36 -81 -37 -43 -1 -51 3 -82 36 l-34 38 0 415 0 415 38 15 c52 22 167 53
238 65 102 16 296 4 409 -24z"/>
</g>
</svg>